<?xml version="1.0" encoding="UTF-8"?>
<svg width="30px" height="30px" viewBox="0 0 30 30" version="1.1" xmlns="http://www.w3.org/2000/svg" xmlns:xlink="http://www.w3.org/1999/xlink">
    <!-- Generator: sketchtool 51.2 (57519) - http://www.bohemiancoding.com/sketch -->
    <title>E0395B14-8A97-4220-ADC0-C838CB80AAE0</title>
    <desc>Created with sketchtool.</desc>
    <defs></defs>
    <g id="Page-1" stroke="none" stroke-width="1" fill="none" fill-rule="evenodd">
        <g id="Refresh18-home-updated" transform="translate(-176.000000, -5785.000000)" fill="#FFFFFF">
            <path d="M195.5,5794.125 L193.875,5794.125 C192.625,5794.125 192.375,5794.75 192.375,5795.625 L192.375,5797.625 L195.5,5797.625 L195.125,5800.75 L192.375,5800.75 L192.375,5808.75 L189.125,5808.75 L189.125,5800.75 L186.375,5800.75 L186.375,5797.625 L189.125,5797.625 L189.125,5795.375 C189.125,5792.75 190.75,5791.25 193.125,5791.25 C194.25,5791.25 195.25,5791.375 195.5,5791.375 L195.5,5794.125 Z M191,5785 C182.75,5785 176,5791.75 176,5800 C176,5808.25 182.75,5815 191,5815 C199.25,5815 206,5808.25 206,5800 C206,5791.75 199.25,5785 191,5785 L191,5785 Z" id="Fill-5-Copy-3"></path>
        </g>
    </g>
</svg>