<?xml version="1.0" encoding="UTF-8"?>
<svg width="30px" height="30px" viewBox="0 0 30 30" version="1.1" xmlns="http://www.w3.org/2000/svg" xmlns:xlink="http://www.w3.org/1999/xlink">
    <!-- Generator: sketchtool 51.2 (57519) - http://www.bohemiancoding.com/sketch -->
    <title>82027F59-0780-4495-A113-151682F0CB29</title>
    <desc>Created with sketchtool.</desc>
    <defs></defs>
    <g id="Page-1" stroke="none" stroke-width="1" fill="none" fill-rule="evenodd">
        <g id="Refresh18-home-updated" transform="translate(-219.000000, -5785.000000)" fill="#FFFFFF">
            <g id="Group-15-Copy-2" transform="translate(219.000000, 5785.000000)">
                <g id="Group-13">
                    <path d="M24,22 L20.625,22 L20.625,17 C20.625,15.75 20.625,14.25 18.875,14.25 C17.125,14.25 16.875,15.5 16.875,16.875 L16.875,22 L13.5,22 L13.375,11.5 L16.625,11.5 L16.625,13.125 C17.125,12.25 18.25,11.5 19.875,11.5 C23.375,11.5 24,13.625 24,16.375 L24,22 Z M9.25,10.25 C8.25,10.25 7.5,9.5 7.5,8.5 C7.5,7.5 8.25,6.75 9.25,6.75 C10.25,6.75 11,7.5 11,8.5 C11,9.5 10.25,10.25 9.25,10.25 L9.25,10.25 Z M7.5,22.125 L11,22.125 L11,11.5 L7.5,11.5 L7.5,22.125 Z M15,0 C6.75,0 0,6.75 0,15 C0,23.25 6.75,30 15,30 C23.25,30 30,23.25 30,15 C30,6.75 23.25,0 15,0 L15,0 Z" id="Fill-5"></path>
                </g>
            </g>
        </g>
    </g>
</svg>