<?xml version="1.0" encoding="UTF-8"?>
<svg width="20px" height="20px" viewBox="0 0 20 20" version="1.1" xmlns="http://www.w3.org/2000/svg" xmlns:xlink="http://www.w3.org/1999/xlink">
    <!-- Generator: sketchtool 51.2 (57519) - http://www.bohemiancoding.com/sketch -->
    <title>A034EACA-CA84-4EC5-8083-74FFD6A9E555</title>
    <desc>Created with sketchtool.</desc>
    <defs></defs>
    <g id="Page-1" stroke="none" stroke-width="1" fill="none" fill-rule="evenodd">
        <g id="Refresh18-home-updated" transform="translate(-992.000000, -4456.000000)">
            <g id="Group-12" transform="translate(992.000000, 4456.000000)">
                <path d="M10,0 C15.5,0 20,4.5 20,10 C20,15.5 15.5,20 10,20 C4.5,20 0,15.5 0,10 C0,4.5 4.5,0 10,0" id="Fill-1" fill="#007AB9"></path>
                <path d="M7.33333333,5.66666667 C7.33333333,6.33333333 6.83333333,6.83333333 6.16666667,6.83333333 C5.5,6.83333333 5,6.33333333 5,5.66666667 C5,5 5.5,4.5 6.16666667,4.5 C6.83333333,4.5 7.33333333,5 7.33333333,5.66666667 L7.33333333,5.66666667 Z M5,14.75 L7.33333333,14.75 L7.33333333,7.66666667 L5,7.66666667 L5,14.75 Z M8.91666667,7.66666667 L11.0833333,7.66666667 L11.0833333,8.75 C11.4166667,8.16666667 12.1666667,7.66666667 13.25,7.66666667 C15.5833333,7.66666667 16,9.08333333 16,10.9166667 L16,14.6666667 L13.75,14.6666667 L13.75,11.3333333 C13.75,10.5 13.75,9.5 12.5833333,9.5 C11.4166667,9.5 11.25,10.3333333 11.25,11.25 L11.25,14.6666667 L9,14.6666667 L8.91666667,7.66666667 L8.91666667,7.66666667 Z" id="Fill-3" fill="#FFFFFF"></path>
            </g>
        </g>
    </g>
</svg>