<?xml version="1.0" encoding="UTF-8"?>
<svg width="353px" height="70px" viewBox="0 0 353 70" version="1.1" xmlns="http://www.w3.org/2000/svg" xmlns:xlink="http://www.w3.org/1999/xlink">
    <!-- Generator: sketchtool 51.2 (57519) - http://www.bohemiancoding.com/sketch -->
    <title>8F4EC88D-C597-4CFF-A0B3-096D75F32335</title>
    <desc>Created with sketchtool.</desc>
    <defs></defs>
    <g id="Page-1" stroke="none" stroke-width="1" fill="none" fill-rule="evenodd">
        <g id="Refresh18-home-updated" transform="translate(-544.000000, -255.000000)" fill-rule="nonzero">
            <g id="Logo-Copy-2" transform="translate(544.000000, 255.000000)">
                <g id="Group">
                    <path d="M8.36585366,56.1707317 C7.68292683,56.1707317 7,55.8292683 6.48780488,55.1463415 C2.2195122,49.1707317 0,42.1707317 0,34.8292683 C0,15.7073171 15.7073171,0 34.8292683,0 L59.2439024,0 C60.4390244,0 61.4634146,1.02439024 61.4634146,2.2195122 C61.4634146,3.41463415 60.4390244,4.43902439 59.2439024,4.43902439 L34.8292683,4.43902439 C18.097561,4.43902439 4.6097561,17.9268293 4.6097561,34.6585366 C4.6097561,40.9756098 6.48780488,47.1219512 10.2439024,52.2439024 C10.9268293,53.2682927 10.7560976,54.6341463 9.73170732,55.4878049 C9.3902439,56 8.87804878,56.1707317 8.36585366,56.1707317 Z" id="Shape" fill="#FC5B6C"></path>
                    <path d="M34.8292683,69.6585366 C29.0243902,69.6585366 23.2195122,68.1219512 18.097561,65.3902439 C16.902439,64.7073171 16.5609756,63.3414634 17.2439024,62.3170732 C17.9268293,61.1219512 19.2926829,60.7804878 20.3170732,61.4634146 C24.7560976,63.8536585 29.7073171,65.2195122 34.8292683,65.2195122 C51.5609756,65.2195122 65.0487805,51.7317073 65.0487805,35 L65.0487805,14.8536585 C65.0487805,13.6585366 66.0731707,12.6341463 67.2682927,12.6341463 C68.4634146,12.6341463 69.4878049,13.6585366 69.4878049,14.8536585 L69.4878049,34.8292683 C69.6585366,53.9512195 53.9512195,69.6585366 34.8292683,69.6585366 Z" id="Shape" fill="#25C8F9"></path>
                    <path d="M45.0731707,34.6585366 C44.3902439,34.6585366 43.5365854,34.3170732 43.0243902,33.804878 L35.3414634,26.4634146 C34.4878049,25.6097561 34.3170732,24.0731707 35.1707317,23.2195122 C36.0243902,22.3658537 37.5609756,22.195122 38.4146341,23.0487805 L44.902439,29.195122 L51.0487805,22.5365854 C51.902439,21.6829268 53.4390244,21.5121951 54.2926829,22.3658537 C55.1463415,23.2195122 55.3170732,24.7560976 54.4634146,25.6097561 L47.1219512,33.4634146 C46.7804878,34.4878049 45.9268293,34.6585366 45.0731707,34.6585366 Z" id="Shape" fill="#FFFFFF"></path>
                    <path d="M20.6585366,44.7317073 C20.1463415,44.7317073 19.4634146,44.5609756 19.1219512,44.0487805 C18.2682927,43.195122 18.097561,41.6585366 18.9512195,40.804878 L26.2926829,32.9512195 C26.804878,32.4390244 27.4878049,32.097561 28.3414634,32.097561 C29.195122,32.097561 29.8780488,32.2682927 30.3902439,32.9512195 L38.2439024,40.2926829 C39.097561,41.1463415 39.2682927,42.6829268 38.4146341,43.5365854 C37.5609756,44.3902439 36.0243902,44.5609756 35.1707317,43.7073171 L28.6829268,37.5609756 L22.195122,44.0487805 C21.8536585,44.5609756 21.1707317,44.7317073 20.6585366,44.7317073 Z" id="Shape" fill="#FFFFFF"></path>
                </g>
                <path d="M91.7560664,56.1283784 C91.7560664,57.4797297 90.7369093,58.4932432 89.3780332,58.4932432 C88.0191571,58.4932432 87,57.4797297 87,56.1283784 L87,14.0675676 C87,12.7162162 88.0191571,11.7027027 89.3780332,11.7027027 L103.136654,11.7027027 C110.780332,11.7027027 116.385696,17.4459459 116.385696,24.8783784 C116.385696,31.972973 111.45977,37.7162162 103.985951,38.0540541 L116.555556,54.777027 C116.895275,55.1148649 117.065134,55.7905405 117.065134,56.2972973 C117.065134,57.6486486 116.045977,58.6621622 114.687101,58.6621622 C114.007663,58.6621622 113.158365,58.3243243 112.648787,57.4797297 L98.550447,38.0540541 L91.5862069,38.0540541 L91.5862069,56.1283784 L91.7560664,56.1283784 Z M91.7560664,33.6621622 L103.306513,33.6621622 C108.06258,33.6621622 111.62963,29.777027 111.62963,24.8783784 C111.62963,19.8108108 108.06258,16.0945946 103.136654,16.0945946 L91.7560664,16.0945946 L91.7560664,33.6621622 Z M134.560664,25.8918919 C145.601533,25.8918919 147.809706,34.6756757 147.809706,39.2364865 C147.809706,41.2635135 147.809706,43.6283784 145.091954,43.6283784 L124.878672,43.6283784 C124.878672,50.3851351 128.785441,54.777027 135.240102,54.777027 C139.316731,54.777027 141.524904,53.2567568 143.563218,51.9054054 C143.902937,51.5675676 144.242656,51.5675676 144.752235,51.5675676 C145.941252,51.5675676 146.790549,52.4121622 146.790549,53.5945946 C146.790549,54.2702703 146.45083,54.777027 146.111111,55.1148649 C145.091954,56.1283784 141.524904,59 135.409962,59 C126.237548,59 120.462324,53.9324324 120.462324,42.4459459 C120.292465,31.8040541 125.55811,25.8918919 134.560664,25.8918919 Z M134.560664,29.777027 C128.615581,29.777027 125.218391,33.6621622 124.878672,39.7432432 L143.393359,39.7432432 C143.393359,34.8445946 141.694764,29.777027 134.560664,29.777027 Z M153.58493,30.9594595 C152.395913,30.9594595 151.546616,30.1148649 151.546616,28.9324324 C151.546616,27.75 152.395913,26.9054054 153.58493,26.9054054 L155.962963,26.9054054 L155.962963,22.8513514 C155.962963,16.6013514 159.530013,11.027027 167.853129,11.027027 C169.042146,11.027027 169.891443,11.8716216 169.891443,13.0540541 C169.891443,14.2364865 169.042146,15.0810811 167.853129,15.0810811 C162.417625,15.0810811 160.37931,18.2905405 160.37931,22.8513514 L160.37931,26.9054054 L166.664112,26.9054054 C167.853129,26.9054054 168.702427,27.75 168.702427,28.9324324 C168.702427,30.1148649 167.853129,30.9594595 166.664112,30.9594595 L160.37931,30.9594595 L160.37931,56.2972973 C160.37931,57.4797297 159.360153,58.4932432 158.171137,58.4932432 C156.98212,58.4932432 155.962963,57.4797297 155.962963,56.2972973 L155.962963,30.9594595 L153.58493,30.9594595 Z M178.893997,31.4662162 C180.252874,28.2567568 183.650064,25.8918919 188.57599,25.8918919 C189.765006,25.8918919 190.784163,26.9054054 190.784163,28.0878378 C190.784163,29.2702703 189.765006,30.2837838 188.57599,30.2837838 C182.291188,30.2837838 178.893997,34.6756757 178.893997,40.9256757 L178.893997,56.2972973 C178.893997,57.4797297 177.87484,58.4932432 176.685824,58.4932432 C175.496807,58.4932432 174.47765,57.4797297 174.47765,56.2972973 L174.47765,28.4256757 C174.47765,27.2432432 175.496807,26.2297297 176.685824,26.2297297 C177.87484,26.2297297 178.893997,27.2432432 178.893997,28.4256757 L178.893997,31.4662162 Z M207.260536,25.8918919 C218.301405,25.8918919 220.509579,34.6756757 220.509579,39.2364865 C220.509579,41.2635135 220.509579,43.6283784 217.791826,43.6283784 L197.578544,43.6283784 C197.578544,50.3851351 201.485313,54.777027 207.939974,54.777027 C212.016603,54.777027 214.224777,53.2567568 216.263091,51.9054054 C216.60281,51.5675676 216.942529,51.5675676 217.452107,51.5675676 C218.641124,51.5675676 219.490421,52.4121622 219.490421,53.5945946 C219.490421,54.2702703 219.150702,54.777027 218.810983,55.1148649 C217.791826,56.1283784 214.224777,59 208.109834,59 C198.93742,59 193.162197,53.9324324 193.162197,42.4459459 C193.162197,31.8040541 198.257982,25.8918919 207.260536,25.8918919 Z M207.260536,29.777027 C201.315453,29.777027 197.918263,33.6621622 197.578544,39.7432432 L216.093231,39.7432432 C216.093231,34.8445946 214.394636,29.777027 207.260536,29.777027 Z M229.681992,34.1689189 C229.681992,41.4324324 247.85696,38.7297297 247.85696,49.7094595 C247.85696,55.9594595 242.761175,58.8310811 236.136654,58.8310811 C230.53129,58.8310811 226.114943,56.1283784 224.246488,53.9324324 C223.906769,53.4256757 223.736909,53.0878378 223.736909,52.5810811 C223.736909,51.3986486 224.586207,50.5540541 225.775223,50.5540541 C226.114943,50.5540541 226.794381,50.722973 227.303959,51.2297297 C229.512133,53.4256757 232.229885,54.6081081 236.136654,54.6081081 C240.043423,54.6081081 243.440613,53.2567568 243.440613,49.7094595 C243.440613,42.6148649 225.265645,45.4864865 225.265645,34.1689189 C225.265645,28.4256757 230.021711,25.8918919 235.796935,25.8918919 C240.553001,25.8918919 244.120051,27.4121622 246.328225,30.2837838 C246.498084,30.6216216 246.837803,30.9594595 246.837803,31.6351351 C246.837803,32.8175676 245.988506,33.6621622 244.799489,33.6621622 C244.45977,33.6621622 243.950192,33.6621622 243.270754,32.9864865 C241.402299,31.1283784 239.363985,30.1148649 235.796935,30.1148649 C232.569604,30.1148649 229.681992,30.9594595 229.681992,34.1689189 Z M280.130268,38.0540541 L280.130268,56.4662162 C280.130268,57.6486486 279.111111,58.6621622 277.922095,58.6621622 C276.733078,58.6621622 275.713921,57.6486486 275.713921,56.4662162 L275.713921,38.8986486 C275.713921,33.4932432 274.185185,29.777027 267.390805,29.777027 C260.596424,29.777027 258.218391,33.8310811 258.218391,39.4054054 L258.218391,56.2972973 C258.218391,57.4797297 257.199234,58.4932432 256.010217,58.4932432 C254.821201,58.4932432 253.802043,57.4797297 253.802043,56.2972973 L253.802043,11.1959459 C253.802043,10.0135135 254.821201,9 256.010217,9 C257.199234,9 258.218391,10.0135135 258.218391,11.1959459 L258.218391,30.6216216 C259.577267,28.0878378 262.974457,25.8918919 267.390805,25.8918919 C278.091954,25.8918919 280.130268,32.1418919 280.130268,38.0540541 Z M300.853129,22.8513514 C300.51341,23.1891892 300.003831,23.1891892 299.494253,23.1891892 C298.305236,23.1891892 297.286079,22.1756757 297.286079,20.9932432 C297.286079,20.3175676 297.625798,19.472973 298.305236,19.1351351 L309.176245,11.7027027 C309.685824,11.3648649 310.025543,11.1959459 310.535121,11.1959459 C311.724138,11.1959459 312.743295,12.2094595 312.743295,13.3918919 L312.743295,56.1283784 C312.743295,57.3108108 311.724138,58.3243243 310.535121,58.3243243 C309.346105,58.3243243 308.326948,57.3108108 308.326948,56.1283784 L308.326948,17.4459459 L300.853129,22.8513514 Z M320.726692,44.9797297 C320.726692,39.0675676 323.784163,34.6756757 328.879949,32.8175676 C325.822478,31.1283784 322.765006,28.2567568 322.765006,22.8513514 C322.765006,14.5743243 328.54023,10.8581081 336.863346,10.8581081 C345.186462,10.8581081 350.961686,14.5743243 350.961686,22.8513514 C350.961686,28.2567568 348.074074,31.1283784 344.846743,32.8175676 C349.942529,34.6756757 353,39.0675676 353,44.9797297 C353,54.2702703 346.375479,59 336.863346,59 C327.351213,59 320.726692,54.2702703 320.726692,44.9797297 Z M325.312899,44.9797297 C325.312899,51.9054054 330.068966,54.9459459 336.863346,54.9459459 C343.657727,54.9459459 348.413793,51.9054054 348.413793,44.9797297 C348.413793,38.222973 343.997446,35.0135135 336.863346,35.0135135 C329.729246,35.0135135 325.312899,38.0540541 325.312899,44.9797297 Z M327.351213,22.6824324 C327.351213,28.0878378 331.088123,30.7905405 336.863346,30.7905405 C342.63857,30.7905405 346.375479,28.0878378 346.375479,22.6824324 C346.375479,17.4459459 342.808429,14.9121622 336.863346,14.9121622 C330.918263,14.9121622 327.351213,17.4459459 327.351213,22.6824324 Z" id="Shape" fill="#FFFFFF"></path>
            </g>
        </g>
    </g>
</svg>