<?xml version="1.0" encoding="UTF-8"?>
<svg width="20px" height="20px" viewBox="0 0 20 20" version="1.1" xmlns="http://www.w3.org/2000/svg" xmlns:xlink="http://www.w3.org/1999/xlink">
    <!-- Generator: sketchtool 51.2 (57519) - http://www.bohemiancoding.com/sketch -->
    <title>BF60BE57-EE78-45C7-BC73-BF33C5811657</title>
    <desc>Created with sketchtool.</desc>
    <defs></defs>
    <g id="Page-1" stroke="none" stroke-width="1" fill="none" fill-rule="evenodd">
        <g id="Refresh18-home-updated" transform="translate(-927.000000, -4456.000000)">
            <g id="Group-14" transform="translate(927.000000, 4456.000000)">
                <path d="M10,20 C4.5,20 0,15.5 0,10 C0,4.5 4.5,0 10,0 C15.5,0 20,4.5 20,10 C20,15.5 15.5,20 10,20" id="Fill-1" fill="#55ACEE"></path>
                <path d="M15.5833333,6.58333333 C15.1666667,6.75 14.75,6.91666667 14.25,6.91666667 C14.75,6.66666667 15.0833333,6.16666667 15.25,5.66666667 C14.8333333,5.91666667 14.3333333,6.08333333 13.75,6.25 C13.3333333,5.83333333 12.75,5.5 12.0833333,5.5 C10.8333333,5.5 9.75,6.5 9.75,7.75 C9.75,7.91666667 9.75,8.08333333 9.83333333,8.25 C8,8.16666667 6.33333333,7.25 5.16666667,5.91666667 C5,6.25 4.83333333,6.66666667 4.83333333,7.08333333 C4.83333333,7.83333333 5.25,8.58333333 5.83333333,9 C5.41666667,9 5.08333333,8.91666667 4.75,8.75 C4.75,9.83333333 5.58333333,10.75 6.58333333,11 C6.41666667,11.0833333 6.16666667,11.0833333 6,11.0833333 L5.58333333,11.0833333 C5.91666667,11.8333333 6.75,12.5 7.75,12.5 C7,13.0833333 6,13.5 4.91666667,13.5 L4.33333333,13.5 C5.33333333,14.1666667 6.58333333,14.5 7.83333333,14.5 C12.0833333,14.5 14.4166667,11 14.4166667,8 L14.4166667,7.66666667 C14.9166667,7.41666667 15.3333333,7 15.5833333,6.58333333" id="Fill-3" fill="#FFFFFF"></path>
            </g>
        </g>
    </g>
</svg>