<?xml version="1.0" encoding="UTF-8"?>
<svg width="30px" height="30px" viewBox="0 0 30 30" version="1.1" xmlns="http://www.w3.org/2000/svg" xmlns:xlink="http://www.w3.org/1999/xlink">
    <!-- Generator: sketchtool 51.2 (57519) - http://www.bohemiancoding.com/sketch -->
    <title>9C50BB29-A506-4B17-80CA-FB2B7CB05270</title>
    <desc>Created with sketchtool.</desc>
    <defs></defs>
    <g id="Page-1" stroke="none" stroke-width="1" fill="none" fill-rule="evenodd">
        <g id="Refresh18-home-updated" transform="translate(-262.000000, -5785.000000)" fill="#FFFFFF">
            <path d="M283.625,5796.5 L283.625,5797 C283.625,5801.5 280.125,5806.75 273.75,5806.75 C271.875,5806.75 270,5806.25 268.5,5805.25 L269.375,5805.25 C271,5805.25 272.5,5804.625 273.625,5803.75 C272.125,5803.75 270.875,5802.75 270.375,5801.625 L271,5801.625 C271.25,5801.625 271.625,5801.625 271.875,5801.5 C270.375,5801.125 269.125,5799.75 269.125,5798.125 C269.625,5798.375 270.125,5798.5 270.75,5798.5 C269.875,5797.875 269.25,5796.75 269.25,5795.625 C269.25,5795 269.5,5794.375 269.75,5793.875 C271.5,5795.875 274,5797.25 276.75,5797.375 C276.625,5797.125 276.625,5796.875 276.625,5796.625 C276.625,5794.75 278.25,5793.25 280.125,5793.25 C281.125,5793.25 282,5793.75 282.625,5794.375 C283.5,5794.125 284.25,5793.875 284.875,5793.5 C284.625,5794.25 284.125,5795 283.375,5795.375 C284.125,5795.375 284.75,5795.125 285.375,5794.875 C285,5795.5 284.375,5796.125 283.625,5796.5 M277,5785 C268.75,5785 262,5791.75 262,5800 C262,5808.25 268.75,5815 277,5815 C285.25,5815 292,5808.25 292,5800 C292,5791.75 285.25,5785 277,5785" id="Fill-5-Copy-4"></path>
        </g>
    </g>
</svg>